# File produced by Open Asset Import Library (http://www.assimp.sf.net)
# (assimp v3.2.202087883)

mtllib model_normalized.mtl

# 100 vertex positions
v 0.013715 0.038055 0.250740
v 0.002048 -0.005485 0.313843
v 0.024586 0.033552 0.250740
v 0.002048 0.039591 0.250740
v 0.033922 0.026388 0.250740
v 0.024586 0.033552 -0.278666
v -0.009618 0.038055 0.250740
v 0.013715 0.038055 -0.278666
v 0.041085 0.017053 0.250740
v 0.033922 0.026388 -0.278666
v -0.020490 0.033552 0.250740
v 0.002048 0.039591 -0.278666
v 0.045588 0.006181 0.250740
v 0.002048 -0.005485 -0.477762
v -0.029826 0.026388 0.250740
v -0.009618 0.038055 -0.278666
v 0.047124 -0.005485 0.250740
v 0.041085 0.017053 -0.278666
v -0.036989 0.017053 0.250740
v -0.020490 0.033552 -0.278666
v 0.045588 -0.017152 0.250740
v 0.045588 0.006181 -0.278666
v -0.036989 0.017053 -0.278666
v -0.041492 0.006181 0.250740
v -0.029826 0.026388 -0.278666
v 0.041085 -0.028024 0.250740
v 0.047124 -0.005485 -0.278666
v -0.041492 0.006181 -0.278666
v -0.043028 -0.005485 0.250740
v 0.033922 -0.037359 0.250740
v 0.045588 -0.017152 -0.278666
v -0.043028 -0.005485 -0.278666
v -0.041492 -0.017152 0.250740
v 0.024586 -0.044523 0.250740
v 0.041085 -0.028024 -0.278666
v -0.041492 -0.017152 -0.278666
v -0.036989 -0.028024 0.250740
v 0.013715 -0.049026 0.250740
v 0.024586 -0.044523 -0.278666
v 0.033922 -0.037359 -0.278666
v -0.036989 -0.028024 -0.278666
v -0.029826 -0.037359 0.250740
v 0.002048 -0.050562 0.250740
v 0.013715 -0.049026 -0.278666
v -0.029826 -0.037359 -0.278666
v -0.020490 -0.044523 0.250740
v -0.009618 -0.049026 0.250740
v 0.002048 -0.050562 -0.278666
v -0.009618 -0.049026 -0.278666
v -0.020490 -0.044523 -0.278666
v 0.002048 0.113008 0.306263
v 0.002048 0.008147 0.149381
v 0.002048 0.008147 0.244968
v 0.002048 0.113008 0.244968
v -0.004272 0.008147 0.244968
v -0.004272 0.113008 0.244968
v -0.004272 0.008147 0.149381
v -0.004272 0.113008 0.306263
v -0.011332 -0.037218 -0.164414
v 0.299345 -0.037218 0.006952
v -0.024400 -0.037218 0.006952
v 0.299345 -0.037218 -0.044956
v -0.024400 -0.028111 0.006952
v 0.299345 -0.028111 -0.044956
v 0.299345 -0.028111 0.006952
v -0.011332 -0.028111 -0.164414
v -0.289388 -0.039185 -0.039178
v -0.017598 -0.039185 -0.149505
v -0.017598 -0.039185 0.004765
v -0.289388 -0.039185 -0.090062
v -0.017598 -0.030306 -0.149505
v -0.289388 -0.030306 -0.039178
v -0.017598 -0.030306 0.004765
v -0.289388 -0.030306 -0.090062
v -0.101065 0.002152 0.202486
v -0.028249 0.002152 0.231324
v -0.101065 0.002152 0.231324
v -0.033087 0.002152 0.183650
v -0.101065 0.009703 0.231324
v -0.033087 0.009703 0.183650
v -0.028249 0.009703 0.231324
v -0.101065 0.009703 0.202486
v 0.107681 0.012240 0.202298
v 0.021065 0.012240 0.232706
v 0.107681 0.012240 0.232706
v 0.021065 0.012240 0.176472
v 0.107681 0.004613 0.232706
v 0.021065 0.004613 0.176472
v 0.021065 0.004613 0.232706
v 0.107681 0.004613 0.202298
v 0.002048 0.021145 -0.360141
v 0.010061 0.024420 -0.341013
v 0.002048 0.025526 -0.340785
v 0.008952 0.020280 -0.359944
v -0.004856 0.020280 -0.359944
v 0.015385 0.017615 -0.359944
v -0.005978 0.024470 -0.340785
v 0.017554 0.021372 -0.340785
v -0.011289 0.017615 -0.359944
v -0.013458 0.021372 -0.340785

# 0 UV coordinates

# 180 vertex normals
vn 0.00625942 0.0233605 0.0077631
vn 0 0 0.0254
vn 0.0120923 0.0209445 0.0077631
vn -0.0120923 -0.0209445 -0.0077631
vn 0 0 -0.0254
vn -0.00625942 -0.0233605 -0.0077631
vn 0 0.0241846 0.0077631
vn 0 -0.0241846 -0.0077631
vn 0.0171011 0.0171011 0.0077631
vn -0.0171011 -0.0171011 -0.0077631
vn 0.0126214 0.0218608 -0.0028224
vn -0.0126214 -0.0218608 0.0028224
vn -0.00625942 0.0233605 0.0077631
vn 0.00625942 -0.0233605 -0.0077631
vn 0.00653329 0.0243826 -0.0028224
vn -0.00653329 -0.0243826 0.0028224
vn 0.0209445 0.0120923 0.0077631
vn -0.0209445 -0.0120923 -0.0077631
vn 0.0178493 0.0178493 -0.0028224
vn -0.0178493 -0.0178493 0.0028224
vn -0.0120923 0.0209445 0.0077631
vn 0.0120923 -0.0209445 -0.0077631
vn 0 0.0252427 -0.0028224
vn 0 -0.0252427 0.0028224
vn 0.0233605 0.00625942 0.0077631
vn -0.0233605 -0.00625942 -0.0077631
vn -0.0171011 0.0171011 0.0077631
vn 0.0171011 -0.0171011 -0.0077631
vn -0.00653329 0.0243826 -0.0028224
vn 0.00653329 -0.0243826 0.0028224
vn 0.0241846 0 0.0077631
vn -0.0241846 0 -0.0077631
vn 0.0218608 0.0126214 -0.0028224
vn -0.0218608 -0.0126214 0.0028224
vn -0.0209445 0.0120923 0.0077631
vn 0.0209445 -0.0120923 -0.0077631
vn -0.0126214 0.0218608 -0.0028224
vn 0.0126214 -0.0218608 0.0028224
vn 0.0233605 -0.00625942 0.0077631
vn -0.0233605 0.00625942 -0.0077631
vn 0.0243826 0.00653329 -0.0028224
vn -0.0243826 -0.00653329 0.0028224
vn -0.0218608 0.0126214 -0.0028224
vn 0.0218608 -0.0126214 0.0028224
vn -0.0233605 0.00625942 0.0077631
vn 0.0233605 -0.00625942 -0.0077631
vn -0.0178493 0.0178493 -0.0028224
vn 0.0178493 -0.0178493 0.0028224
vn 0.0209445 -0.0120923 0.0077631
vn -0.0209445 0.0120923 -0.0077631
vn 0.0252427 0 -0.0028224
vn -0.0252427 0 0.0028224
vn -0.0243826 0.00653329 -0.0028224
vn 0.0243826 -0.00653329 0.0028224
vn -0.0241846 0 0.0077631
vn 0.0241846 0 -0.0077631
vn 0.0171011 -0.0171011 0.0077631
vn -0.0171011 0.0171011 -0.0077631
vn 0.0243826 -0.00653329 -0.0028224
vn -0.0243826 0.00653329 0.0028224
vn -0.0252427 0 -0.0028224
vn 0.0252427 0 0.0028224
vn -0.0233605 -0.00625942 0.0077631
vn 0.0233605 0.00625942 -0.0077631
vn 0.0120923 -0.0209445 0.0077631
vn -0.0120923 0.0209445 -0.0077631
vn 0.0218608 -0.0126214 -0.0028224
vn -0.0218608 0.0126214 0.0028224
vn -0.0243826 -0.00653329 -0.0028224
vn 0.0243826 0.00653329 0.0028224
vn -0.0209445 -0.0120923 0.0077631
vn 0.0209445 0.0120923 -0.0077631
vn 0.00625942 -0.0233605 0.0077631
vn -0.00625942 0.0233605 -0.0077631
vn 0.0126214 -0.0218608 -0.0028224
vn -0.0126214 0.0218608 0.0028224
vn 0.0178493 -0.0178493 -0.0028224
vn -0.0178493 0.0178493 0.0028224
vn -0.0218608 -0.0126214 -0.0028224
vn 0.0218608 0.0126214 0.0028224
vn -0.0171011 -0.0171011 0.0077631
vn 0.0171011 0.0171011 -0.0077631
vn 0 -0.0241846 0.0077631
vn 0 0.0241846 -0.0077631
vn 0.00653329 -0.0243826 -0.0028224
vn -0.00653329 0.0243826 0.0028224
vn -0.0178493 -0.0178493 -0.0028224
vn 0.0178493 0.0178493 0.0028224
vn -0.0120923 -0.0209445 0.0077631
vn 0.0120923 0.0209445 -0.0077631
vn -0.00625942 -0.0233605 0.0077631
vn 0.00625942 0.0233605 -0.0077631
vn 0 -0.0252427 -0.0028224
vn 0 0.0252427 0.0028224
vn -0.00653329 -0.0243826 -0.0028224
vn 0.00653329 0.0243826 0.0028224
vn -0.0126214 -0.0218608 -0.0028224
vn 0.0126214 0.0218608 0.0028224
vn -0.0180023 -0.00891763 -0.015542
vn -0.019758 0.00644759 0.0146017
vn -0.0126853 0.0190868 -0.0109516
vn -0.0121821 -0.0203888 0.00900293
vn 0.0126853 -0.0190868 0.0109516
vn 0.019758 -0.00644759 -0.0146017
vn 0.0180023 0.00891763 0.015542
vn 0.0121821 0.0203888 -0.00900293
vn 0.0126853 0.0190868 -0.0109516
vn -0.0126853 -0.0190868 0.0109516
vn 0.0121821 -0.0203888 0.00900293
vn -0.0121821 0.0203888 -0.00900293
vn 0.019758 0.00644759 0.0146017
vn -0.019758 -0.00644759 -0.0146017
vn 0.0180023 -0.00891763 -0.015542
vn -0.0180023 0.00891763 0.015542
vn -0.0104072 -0.0163067 -0.0164603
vn 0.0146647 -0.0146647 0.0146647
vn -0.0150076 -0.0150512 0.0139067
vn 0.017901 -0.0131732 -0.0122956
vn 0.0150076 0.0150512 -0.0139067
vn -0.0146647 0.0146647 -0.0146647
vn 0.0104072 0.0163067 0.0164603
vn -0.017901 0.0131732 0.0122956
vn -0.0150076 0.0150512 0.0139067
vn 0.0150076 -0.0150512 -0.0139067
vn 0.017901 0.0131732 -0.0122956
vn -0.017901 -0.0131732 0.0122956
vn 0.0146647 0.0146647 0.0146647
vn -0.0146647 -0.0146647 -0.0146647
vn -0.0104072 0.0163067 -0.0164603
vn 0.0104072 -0.0163067 0.0164603
vn -0.0161669 -0.0139417 0.013763
vn 0.0124523 -0.0158358 -0.0154701
vn 0.0130372 -0.0155133 0.0153144
vn -0.0166515 -0.0137201 -0.0134032
vn -0.0130372 0.0155133 -0.0153144
vn -0.0124523 0.0158358 0.0154701
vn 0.0161669 0.0139417 -0.013763
vn 0.0166515 0.0137201 0.0134032
vn 0.0124523 0.0158358 -0.0154701
vn -0.0124523 -0.0158358 0.0154701
vn -0.0161669 0.0139417 0.013763
vn 0.0161669 -0.0139417 -0.013763
vn 0.0130372 0.0155133 0.0153144
vn -0.0130372 -0.0155133 -0.0153144
vn -0.0166515 0.0137201 -0.0134032
vn 0.0166515 -0.0137201 0.0134032
vn -0.0171192 -0.0135113 -0.0130207
vn 0.015107 -0.0151846 0.0136515
vn -0.0146647 -0.0146647 0.0146647
vn 0.0113285 -0.0155642 -0.0165705
vn 0.0146647 0.0146647 -0.0146647
vn -0.015107 0.0151846 -0.0136515
vn 0.0171192 0.0135113 0.0130207
vn -0.0113285 0.0155642 0.0165705
vn -0.0146647 0.0146647 0.0146647
vn 0.0146647 -0.0146647 -0.0146647
vn 0.0113285 0.0155642 -0.0165705
vn -0.0113285 -0.0155642 0.0165705
vn 0.015107 0.0151846 0.0136515
vn -0.015107 -0.0151846 -0.0136515
vn -0.0171192 0.0135113 -0.0130207
vn 0.0171192 -0.0135113 0.0130207
vn 0.0172807 0.0134404 -0.01288
vn -0.0116419 0.016299 -0.0156195
vn -0.0172807 -0.0134404 0.01288
vn 0.0116419 -0.016299 0.0156195
vn -0.0116419 -0.016299 -0.0156195
vn 0.0116419 0.016299 0.0156195
vn 0.0172807 -0.0134404 -0.01288
vn -0.0172807 0.0134404 0.01288
vn 0 -0.024773 0.0056087
vn -0.00641172 -0.0239289 0.0056087
vn 0 0.024773 -0.0056087
vn 0.00641172 0.0239289 -0.0056087
vn 0.00641172 -0.0239289 0.0056087
vn -0.00641172 0.0239289 -0.0056087
vn -0.00948416 -0.0228968 0.00556303
vn 0.00948416 0.0228968 -0.00556303
vn 0.00948416 -0.0228968 0.00556303
vn -0.00948416 0.0228968 -0.00556303

# Mesh 'mesh1_mesh1-geometry' with 192 faces
g mesh1_mesh1-geometry
usemtl material_0_24
f  1//1 2//2 3//3
f  3//4 2//5 1//6
f  4//7 2//2 1//1
f  1//6 2//5 4//8
f  3//3 2//2 5//9
f  5//10 2//5 3//4
f  6//11 1//1 3//3
f  3//4 1//6 6//12
f  7//13 2//2 4//7
f  4//8 2//5 7//14
f  8//15 4//7 1//1
f  1//6 4//8 8//16
f  5//9 2//2 9//17
f  9//18 2//5 5//10
f  10//19 3//3 5//9
f  5//10 3//4 10//20
f  1//1 6//11 8//15
f  8//16 6//12 1//6
f  3//3 10//19 6//11
f  6//12 10//20 3//4
f  11//21 2//2 7//13
f  7//14 2//5 11//22
f  12//23 7//13 4//7
f  4//8 7//14 12//24
f  4//7 8//15 12//23
f  12//24 8//16 4//8
f  9//17 2//2 13//25
f  13//26 2//5 9//18
f  9//17 10//19 5//9
f  5//10 10//20 9//18
f  14//5 8//15 6//11
f  6//12 8//16 14//2
f  14//5 6//11 10//19
f  10//20 6//12 14//2
f  15//27 2//2 11//21
f  11//22 2//5 15//28
f  16//29 11//21 7//13
f  7//14 11//22 16//30
f  7//13 12//23 16//29
f  16//30 12//24 7//14
f  14//5 12//23 8//15
f  8//16 12//24 14//2
f  13//25 2//2 17//31
f  17//32 2//5 13//26
f  13//25 18//33 9//17
f  9//18 18//34 13//26
f  10//19 9//17 18//33
f  18//34 9//18 10//20
f  10//19 18//33 14//5
f  14//2 18//34 10//20
f  15//27 19//35 2//2
f  2//5 19//36 15//28
f  20//37 15//27 11//21
f  11//22 15//28 20//38
f  11//21 16//29 20//37
f  20//38 16//30 11//22
f  14//5 16//29 12//23
f  12//24 16//30 14//2
f  2//2 21//39 17//31
f  17//32 21//40 2//5
f  17//31 22//41 13//25
f  13//26 22//42 17//32
f  18//33 13//25 22//41
f  22//42 13//26 18//34
f  18//33 22//41 14//5
f  14//2 22//42 18//34
f  15//27 23//43 19//35
f  19//36 23//44 15//28
f  19//35 24//45 2//2
f  2//5 24//46 19//36
f  15//27 20//37 25//47
f  25//48 20//38 15//28
f  14//5 20//37 16//29
f  16//30 20//38 14//2
f  2//2 26//49 21//39
f  21//40 26//50 2//5
f  21//39 27//51 17//31
f  17//32 27//52 21//40
f  22//41 17//31 27//51
f  27//52 17//32 22//42
f  22//41 27//51 14//5
f  14//2 27//52 22//42
f  23//43 15//27 25//47
f  25//48 15//28 23//44
f  28//53 19//35 23//43
f  23//44 19//36 28//54
f  19//35 28//53 24//45
f  24//46 28//54 19//36
f  24//45 29//55 2//2
f  2//5 29//56 24//46
f  14//5 25//47 20//37
f  20//38 25//48 14//2
f  2//2 30//57 26//49
f  26//50 30//58 2//5
f  26//49 31//59 21//39
f  21//40 31//60 26//50
f  27//51 21//39 31//59
f  31//60 21//40 27//52
f  14//5 27//51 31//59
f  31//60 27//52 14//2
f  25//47 14//5 23//43
f  23//44 14//2 25//48
f  23//43 14//5 28//53
f  28//54 14//2 23//44
f  32//61 24//45 28//53
f  28//54 24//46 32//62
f  24//45 32//61 29//55
f  29//56 32//62 24//46
f  29//55 33//63 2//2
f  2//5 33//64 29//56
f  30//57 2//2 34//65
f  34//66 2//5 30//58
f  30//57 35//67 26//49
f  26//50 35//68 30//58
f  31//59 26//49 35//67
f  35//68 26//50 31//60
f  14//5 31//59 35//67
f  35//68 31//60 14//2
f  28//53 14//5 32//61
f  32//62 14//2 28//54
f  36//69 29//55 32//61
f  32//62 29//56 36//70
f  29//55 36//69 33//63
f  33//64 36//70 29//56
f  2//2 33//63 37//71
f  37//72 33//64 2//5
f  34//65 2//2 38//73
f  38//74 2//5 34//66
f  39//75 30//57 34//65
f  34//66 30//58 39//76
f  35//67 30//57 40//77
f  40//78 30//58 35//68
f  14//5 35//67 40//77
f  40//78 35//68 14//2
f  14//5 36//69 32//61
f  32//62 36//70 14//2
f  41//79 33//63 36//69
f  36//70 33//64 41//80
f  33//63 41//79 37//71
f  37//72 41//80 33//64
f  2//2 37//71 42//81
f  42//82 37//72 2//5
f  38//73 2//2 43//83
f  43//84 2//5 38//74
f  44//85 34//65 38//73
f  38//74 34//66 44//86
f  30//57 39//75 40//77
f  40//78 39//76 30//58
f  34//65 44//85 39//75
f  39//76 44//86 34//66
f  14//5 40//77 39//75
f  39//76 40//78 14//2
f  14//5 41//79 36//69
f  36//70 41//80 14//2
f  45//87 37//71 41//79
f  41//80 37//72 45//88
f  37//71 45//87 42//81
f  42//82 45//88 37//72
f  46//89 2//2 42//81
f  42//82 2//5 46//90
f  43//83 2//2 47//91
f  47//92 2//5 43//84
f  48//93 38//73 43//83
f  43//84 38//74 48//94
f  38//73 48//93 44//85
f  44//86 48//94 38//74
f  14//5 39//75 44//85
f  44//86 39//76 14//2
f  14//5 45//87 41//79
f  41//80 45//88 14//2
f  45//87 46//89 42//81
f  42//82 46//90 45//88
f  47//91 2//2 46//89
f  46//90 2//5 47//92
f  49//95 43//83 47//91
f  47//92 43//84 49//96
f  43//83 49//95 48//93
f  48//94 49//96 43//84
f  14//5 44//85 48//93
f  48//94 44//86 14//2
f  14//5 50//97 45//87
f  45//88 50//98 14//2
f  46//89 45//87 50//97
f  50//98 45//88 46//90
f  50//97 47//91 46//89
f  46//90 47//92 50//98
f  47//91 50//97 49//95
f  49//96 50//98 47//92
f  14//5 48//93 49//95
f  49//96 48//94 14//2
f  14//5 49//95 50//97
f  50//98 49//96 14//2

# Mesh 'mesh2_mesh2-geometry' with 24 faces
g mesh2_mesh2-geometry
usemtl material_0_24
f  51//99 52//100 53//101
f  52//100 51//99 54//102
f  53//103 52//104 51//105
f  54//106 51//105 52//104
f  52//100 55//107 53//101
f  53//103 55//108 52//104
f  55//107 51//99 53//101
f  53//103 51//105 55//108
f  51//99 56//109 54//102
f  54//106 56//110 51//105
f  56//109 52//100 54//102
f  54//106 52//104 56//110
f  55//107 52//100 57//111
f  57//112 52//104 55//108
f  51//99 55//107 58//113
f  58//114 55//108 51//105
f  56//109 51//99 58//113
f  58//114 51//105 56//110
f  52//100 56//109 57//111
f  57//112 56//110 52//104
f  56//109 55//107 57//111
f  57//112 55//108 56//110
f  55//107 56//109 58//113
f  58//114 56//110 55//108

# Mesh 'mesh3_mesh3-geometry' with 24 faces
g mesh3_mesh3-geometry
usemtl material_0_24
f  59//115 60//116 61//117
f  60//116 59//115 62//118
f  61//119 60//120 59//121
f  62//122 59//121 60//120
f  60//116 63//123 61//117
f  61//119 63//124 60//120
f  63//123 59//115 61//117
f  61//119 59//121 63//124
f  59//115 64//125 62//118
f  62//122 64//126 59//121
f  64//125 60//116 62//118
f  62//122 60//120 64//126
f  63//123 60//116 65//127
f  65//128 60//120 63//124
f  59//115 63//123 66//129
f  66//130 63//124 59//121
f  64//125 59//115 66//129
f  66//130 59//121 64//126
f  60//116 64//125 65//127
f  65//128 64//126 60//120
f  64//125 63//123 65//127
f  65//128 63//124 64//126
f  63//123 64//125 66//129
f  66//130 64//126 63//124

# Mesh 'mesh4_mesh4-geometry' with 24 faces
g mesh4_mesh4-geometry
usemtl material_0_24
f  67//131 68//132 69//133
f  68//132 67//131 70//134
f  69//135 68//136 67//137
f  70//138 67//137 68//136
f  71//139 69//133 68//132
f  68//136 69//135 71//140
f  69//133 72//141 67//131
f  67//137 72//142 69//135
f  72//141 70//134 67//131
f  67//137 70//138 72//142
f  70//134 71//139 68//132
f  68//136 71//140 70//138
f  69//133 71//139 73//143
f  73//144 71//140 69//135
f  72//141 69//133 73//143
f  73//144 69//135 72//142
f  70//134 72//141 74//145
f  74//146 72//142 70//138
f  71//139 70//134 74//145
f  74//146 70//138 71//140
f  71//139 72//141 73//143
f  73//144 72//142 71//140
f  72//141 71//139 74//145
f  74//146 71//140 72//142

# Mesh 'mesh5_mesh5-geometry' with 24 faces
g mesh5_mesh5-geometry
usemtl material_0_24
f  75//147 76//148 77//149
f  76//148 75//147 78//150
f  77//151 76//152 75//153
f  78//154 75//153 76//152
f  76//148 79//155 77//149
f  77//151 79//156 76//152
f  79//155 75//147 77//149
f  77//151 75//153 79//156
f  75//147 80//157 78//150
f  78//154 80//158 75//153
f  80//157 76//148 78//150
f  78//154 76//152 80//158
f  79//155 76//148 81//159
f  81//160 76//152 79//156
f  75//147 79//155 82//161
f  82//162 79//156 75//153
f  80//157 75//147 82//161
f  82//162 75//153 80//158
f  76//148 80//157 81//159
f  81//160 80//158 76//152
f  80//157 79//155 81//159
f  81//160 79//156 80//158
f  79//155 80//157 82//161
f  82//162 80//158 79//156

# Mesh 'mesh6_mesh6-geometry' with 24 faces
g mesh6_mesh6-geometry
usemtl material_0_24
f  83//163 84//155 85//127
f  84//155 83//163 86//164
f  85//128 84//156 83//165
f  86//166 83//165 84//156
f  84//155 87//116 85//127
f  85//128 87//120 84//156
f  87//116 83//163 85//127
f  85//128 83//165 87//120
f  83//163 88//167 86//164
f  86//166 88//168 83//165
f  88//167 84//155 86//164
f  86//166 84//156 88//168
f  87//116 84//155 89//149
f  89//151 84//156 87//120
f  83//163 87//116 90//169
f  90//170 87//120 83//165
f  88//167 83//163 90//169
f  90//170 83//165 88//168
f  84//155 88//167 89//149
f  89//151 88//168 84//156
f  88//167 87//116 89//149
f  89//151 87//120 88//168
f  87//116 88//167 90//169
f  90//170 88//168 87//120

# Mesh 'mesh7_mesh7-geometry' with 16 faces
g mesh7_mesh7-geometry
usemtl material_0_24
f  91//171 92//172 93//171
f  92//172 91//171 94//172
f  93//173 92//174 91//173
f  94//174 91//173 92//174
f  93//171 95//175 91//171
f  91//173 95//176 93//173
f  96//177 92//172 94//172
f  94//174 92//174 96//178
f  95//175 93//171 97//175
f  97//176 93//173 95//176
f  92//172 96//177 98//177
f  98//178 96//178 92//174
f  97//175 99//179 95//175
f  95//176 99//180 97//176
f  99//179 97//175 100//179
f  100//180 97//176 99//180

