# File produced by Open Asset Import Library (http://www.assimp.sf.net)
# (assimp v3.2.202087883)

mtllib model_normalized.mtl

# 21 vertex positions
v 0.000372 0.053117 -0.023836
v 0.000372 0.000394 -0.601442
v -0.067963 -0.013481 -0.023836
v 0.068707 -0.013481 -0.023836
v -0.067963 -0.013481 0.085224
v 0.068707 -0.013481 0.085224
v 0.000372 0.011767 0.085224
v -0.109897 0.015373 -0.003758
v -0.105380 -0.013481 -0.048525
v -0.272473 -0.013481 0.223197
v 0.110652 0.015373 -0.003758
v 0.106150 -0.013481 -0.048525
v 0.273218 -0.013481 0.223197
v -0.157576 0.066957 0.223197
v -0.119927 -0.002410 0.027202
v -0.119927 0.023370 -0.014983
v -0.076720 -0.082018 -0.197726
v 0.120754 -0.002386 0.027271
v 0.077403 -0.082018 -0.197726
v 0.112613 0.023370 -0.014983
v 0.158504 0.066957 0.223197

# 0 UV coordinates

# 48 vertex normals
vn -0.01769 0.0181515 -0.00165682
vn 0.01769 0.0181515 -0.00165682
vn 0 -0.0253927 -0.000609956
vn -0.0177278 0.0181903 0
vn 0.0177278 0.0181903 0
vn 0 -0.0254 0
vn -0.00829414 0.0224483 0.00851108
vn 0.00829414 0.0224483 0.00851108
vn 0.01769 -0.0181515 0.00165682
vn -0.01769 -0.0181515 0.00165682
vn 0 0.0253927 0.000609956
vn 0.0177278 -0.0181903 0
vn 0 0 0.0254
vn -0 -0 -0.0254
vn -0.0177278 -0.0181903 -0
vn 0 0.0254 0
vn 0 0.0216778 0.0132375
vn -0 -0.0216778 -0.0132375
vn 0.00829414 -0.0224483 -0.00851108
vn -0.00829414 -0.0224483 -0.00851108
vn -0.0178968 0.0142739 -0.0110055
vn 0.0162109 0.0142216 0.0134206
vn 0.0178968 -0.0142739 0.0110055
vn 0.00820357 0.0205739 -0.0124328
vn -0.00820357 -0.0205739 0.0124328
vn -0.0162109 -0.0142216 -0.0134206
vn -0.00819988 0.0205737 -0.0124357
vn 0.00819988 -0.0205737 0.0124357
vn -0.0178948 -0.0142786 0.0110026
vn 0.0162087 -0.0142259 -0.0134187
vn 0.0178948 0.0142786 -0.0110026
vn -0.0162087 0.0142259 0.0134187
vn -0.00388445 0.0234189 -0.00903468
vn -0.0144944 -0.0208033 0.00151582
vn 0.0247359 0.00492374 0.00300901
vn -0.012835 -0.0201636 0.00859363
vn 0.00388445 -0.0234189 0.00903468
vn 0.0144944 0.0208033 -0.00151582
vn -0.0247359 -0.00492374 -0.00300901
vn 0.012835 0.0201636 -0.00859363
vn 0.00388079 0.0234189 -0.00903623
vn -0.0249413 0 0.00480553
vn 0.0144342 -0.019188 0.00828457
vn 0.0162757 -0.0194955 0.000431775
vn -0.00388079 -0.0234189 0.00903623
vn 0.0249413 0 -0.00480553
vn -0.0144342 0.019188 -0.00828457
vn -0.0162757 0.0194955 -0.000431775

# Mesh 'mesh1_mesh1-geometry' with 9 faces
g mesh1_mesh1-geometry
usemtl material_0_24
f  1//1 2//1 3//1
f  4//2 2//2 1//2
f  3//3 2//3 4//3
f  5//4 1//4 3//4
f  6//5 4//5 1//5
f  6//6 3//6 4//6
f  7//7 1//7 5//7
f  3//6 6//6 5//6
f  6//8 1//8 7//8

# Mesh 'mesh1_mesh1-geometry' with 14 faces
g mesh1_mesh1-geometry
usemtl material_1_24
f  3//9 2//9 1//9
f  1//10 2//10 4//10
f  4//11 2//11 3//11
f  3//12 1//12 5//12
f  4//13 1//13 3//13
f  3//14 1//14 4//14
f  1//15 4//15 6//15
f  4//16 3//16 6//16
f  6//17 1//17 5//17
f  5//18 1//18 6//18
f  5//19 1//19 7//19
f  5//16 6//16 3//16
f  7//20 1//20 6//20
f  5//14 7//14 6//14

# Mesh 'mesh1_mesh1-geometry' with 1 faces
g mesh1_mesh1-geometry
usemtl material_3_24
f  6//13 7//13 5//13

# Mesh 'mesh2_mesh2-geometry' with 3 faces
g mesh2_mesh2-geometry
usemtl material_0_24
f  8//21 9//21 10//21
f  10//6 9//6 3//6
f  8//22 10//22 3//22

# Mesh 'mesh2_mesh2-geometry' with 5 faces
g mesh2_mesh2-geometry
usemtl material_1_24
f  10//23 9//23 8//23
f  8//24 3//24 9//24
f  9//25 3//25 8//25
f  3//16 9//16 10//16
f  3//26 10//26 8//26

# Mesh 'mesh3_mesh3-geometry' with 5 faces
g mesh3_mesh3-geometry
usemtl material_1_24
f  11//27 12//27 4//27
f  4//28 12//28 11//28
f  12//29 13//29 11//29
f  12//16 4//16 13//16
f  13//30 4//30 11//30

# Mesh 'mesh3_mesh3-geometry' with 3 faces
g mesh3_mesh3-geometry
usemtl material_0_24
f  11//31 13//31 12//31
f  13//6 4//6 12//6
f  11//32 4//32 13//32

# Mesh 'mesh4_mesh4-geometry' with 6 faces
g mesh4_mesh4-geometry
usemtl material_1_24
f  14//33 3//33 15//33
f  16//34 3//34 14//34
f  15//33 3//33 17//33
f  15//35 16//35 14//35
f  16//36 17//36 3//36
f  16//35 15//35 17//35

# Mesh 'mesh4_mesh4-geometry' with 6 faces
g mesh4_mesh4-geometry
usemtl material_2_24
f  15//37 3//37 14//37
f  14//38 3//38 16//38
f  17//37 3//37 15//37
f  14//39 16//39 15//39
f  3//40 17//40 16//40
f  17//39 15//39 16//39

# Mesh 'mesh5_mesh5-geometry' with 6 faces
g mesh5_mesh5-geometry
usemtl material_1_24
f  18//41 19//41 4//41
f  19//42 18//42 20//42
f  4//43 19//43 20//43
f  21//41 18//41 4//41
f  21//42 20//42 18//42
f  4//44 20//44 21//44

# Mesh 'mesh5_mesh5-geometry' with 6 faces
g mesh5_mesh5-geometry
usemtl material_2_24
f  4//45 19//45 18//45
f  20//46 18//46 19//46
f  20//47 19//47 4//47
f  4//45 18//45 21//45
f  18//46 20//46 21//46
f  21//48 20//48 4//48

# Mesh 'mesh6_mesh6-geometry' with 2 faces
g mesh6_mesh6-geometry
usemtl material_1_0
l  8 3
l  3 9

# Mesh 'mesh7_mesh7-geometry' with 3 faces
g mesh7_mesh7-geometry
usemtl material_1_0
l  11 12
l  11 4
l  4 12

